<svg width="100" height="100" viewBox="0 0 100 100" fill="none" xmlns="http://www.w3.org/2000/svg">
<circle cx="50" cy="50" r="50" fill="url(#paint0_linear_13_16)"/>
<path d="M62.3062 71.8001C63.3688 76.4567 63.7812 78.8669 62.9614 80.8692C61.3425 84.8235 57.3053 85.4093 52.9241 83.6156C50.9928 82.8249 49.7471 82.3122 47.2025 79.5421C47.2025 79.5421 45.8517 77.0192 41.0034 75.2366C36.252 73.0902 33.5104 73.961 33.5104 73.961C29.7542 74.1502 28.5585 73.6424 26.6297 72.8527C22.2485 71.0589 19.7779 67.8113 21.3978 63.8548C22.2176 61.8525 24.2047 60.4273 28.2275 57.8501C28.2275 57.8501 35.9821 52.6118 41.5332 50.9267C45.543 49.7122 49.9255 51.517 49.9255 51.517L51.2786 52.0709C51.2786 52.0709 55.8613 53.9341 57.679 57.5371C60.2754 62.7016 62.3058 71.8012 62.3062 71.8001ZM41.8707 42.5929C46.4512 44.4683 52.3033 40.7629 54.9421 34.3178C57.5809 27.8727 56.0076 21.1272 51.4271 19.2518C46.8466 17.3764 40.9944 21.0818 38.3557 27.5269C35.7169 33.9721 37.2902 40.7176 41.8707 42.5929ZM29.2953 50.6417C33.2475 50.6163 36.0608 45.9409 35.5776 40.1978C35.0943 34.4547 31.4995 29.8187 27.5477 29.8429C23.5959 29.8671 20.7834 34.5441 21.2654 40.2867C21.7487 46.0299 25.3439 50.6648 29.2953 50.6417ZM61.1522 50.4872C65.7327 52.3626 71.5861 48.6577 74.2249 42.2126C76.8637 35.7674 75.2891 29.0215 70.7086 27.1461C66.1281 25.2707 60.276 28.9761 57.6372 35.4212C54.9984 41.8664 56.5717 48.6119 61.1522 50.4872ZM80.3059 51.442C77.505 48.6517 71.6924 49.4362 67.3198 53.1925C62.9473 56.9489 61.674 62.2548 64.4749 65.045C67.2763 67.8341 73.0889 67.0497 77.461 63.2945C81.8331 59.5393 83.1068 54.2322 80.3059 51.442Z" fill="#FFFAF7"/>
<defs>
<linearGradient id="paint0_linear_13_16" x1="50" y1="0" x2="50" y2="100" gradientUnits="userSpaceOnUse">
<stop stop-color="#F67D22"/>
<stop offset="0.9999" stop-color="#BAA89B"/>
</linearGradient>
</defs>
</svg>
